Coordinates
version=1
nRows=18
nColumns=22
inDegrees=yes

Units are S.I. units (second, meters, Newtons, ...)
If the header above contains a line with 'inDegrees', this indicates whether rotational values are in degrees (yes) or radians (no).

endheader
time	pelvis_tilt	pelvis_list	pelvis_rotation	pelvis_tx	pelvis_ty	pelvis_tz	hip_flexion_r	hip_adduction_r	hip_rotation_r	knee_angle_r	ankle_angle_r	subtalar_angle_r	hip_flexion_l	hip_adduction_l	hip_rotation_l	knee_angle_l	ankle_angle_l	subtalar_angle_l	lumbar_extension	lumbar_bending	lumbar_rotation
      0.01000000	      1.32661829	     -1.90510885	      0.62342160	      1.09359385	      0.93520342	     -0.00414529	      2.40915512	     -0.61290685	    -12.08518882	    -16.92172758	     11.73326445	      2.01341625	      5.07681313	     -3.42831043	    -10.50841954	    -21.67577634	     13.41965219	     -2.40625867	     -7.96364569	     -0.81615135	     -6.44906441
      0.02000000	      1.34294487	     -1.91802282	      0.61166407	      1.09352063	      0.93521910	     -0.00408838	      2.40024177	     -0.59835165	    -12.09367683	    -16.92663489	     11.73398607	      2.01207317	      5.08500987	     -3.44655302	    -10.48620525	    -21.71885853	     13.41256199	     -2.41913971	     -7.98549583	     -0.79718451	     -6.45093148
      0.03000000	      1.35796222	     -1.93615274	      0.59094643	      1.09343443	      0.93522805	     -0.00399991	      2.39903451	     -0.57846734	    -12.11042350	    -16.93839246	     11.72904191	      2.00916521	      5.09322061	     -3.47112742	    -10.46300835	    -21.76044958	     13.42542213	     -2.43079963	     -8.00600458	     -0.77432193	     -6.44207445
      0.04000000	      1.37071601	     -1.95646028	      0.56737523	      1.09332078	      0.93522882	     -0.00389011	      2.40385487	     -0.55589800	    -12.12843227	    -16.95253145	     11.72140019	      2.00486490	      5.10818716	     -3.50044137	    -10.44321330	    -21.80704063	     13.44663897	     -2.44138833	     -8.02816986	     -0.75019567	     -6.43126387
      0.05000000	      1.38090168	     -1.97398808	      0.53795968	      1.09320476	      0.93522162	     -0.00377085	      2.41406624	     -0.53716549	    -12.14842377	    -16.97003840	     11.71448495	      2.00002893	      5.12355625	     -3.52664749	    -10.42974462	    -21.85184825	     13.46367258	     -2.44839860	     -8.04347930	     -0.72535368	     -6.42030728
      0.06000000	      1.38626666	     -1.99615115	      0.51004964	      1.09303463	      0.93520319	     -0.00362147	      2.43811528	     -0.51243471	    -12.17897740	    -16.99655580	     11.70670447	      1.99232917	      5.15072179	     -3.56251545	    -10.42758102	    -21.90099458	     13.48266964	     -2.45401873	     -8.06380576	     -0.70003142	     -6.40428102
      0.07000000	      1.35950885	     -2.02413337	      0.48153862	      1.09286162	      0.93512614	     -0.00345060	      2.49404455	     -0.48007895	    -12.21512274	    -17.01630140	     11.69820815	      1.96901263	      5.22029960	     -3.61236316	    -10.45686782	    -21.96463701	     13.52131259	     -2.45753376	     -8.04023793	     -0.66794644	     -6.40131956
      0.08000000	      1.36412315	     -2.03141584	      0.44640482	      1.09265018	      0.93510302	     -0.00326869	      2.52793873	     -0.47162166	    -12.24313405	    -17.05508973	     11.69767204	      1.96101473	      5.23955300	     -3.63077991	    -10.45483086	    -21.99322687	     13.51594792	     -2.45642081	     -8.06283352	     -0.65910301	     -6.37946830
      0.09000000	      1.32915259	     -2.04010333	      0.40129431	      1.09243596	      0.93500010	     -0.00306236	      2.61354021	     -0.46547907	    -12.29267111	    -17.10791391	     11.71133321	      1.92782489	      5.31600255	     -3.66322344	    -10.51523856	    -22.05425274	     13.53149879	     -2.44111636	     -8.03173349	     -0.64732670	     -6.35888673
      0.10000000	      1.33333354	     -2.04950089	      0.35840595	      1.09221279	      0.93496942	     -0.00283302	      2.65477952	     -0.45438783	    -12.33546555	    -17.15946913	     11.71185422	      1.91719777	      5.33220435	     -3.68718009	    -10.52319138	    -22.07813673	     13.52632553	     -2.43800674	     -8.05018571	     -0.63848264	     -6.33180059
      0.11000000	      1.28009284	     -2.04849737	      0.30663968	      1.09196090	      0.93482644	     -0.00258069	      2.76939092	     -0.45674092	    -12.38159152	    -17.22473834	     11.73951259	      1.86922937	      5.43402575	     -3.71532764	    -10.60804482	    -22.14606366	     13.55041655	     -2.41773650	     -7.99997961	     -0.64251774	     -6.30780800
      0.12000000	      1.28317986	     -2.05871626	      0.26211285	      1.09172133	      0.93478793	     -0.00233900	      2.81867916	     -0.44683644	    -12.43596081	    -17.28599119	     11.73931316	      1.85623097	      5.45009078	     -3.74180384	    -10.62392022	    -22.16516730	     13.54563644	     -2.41604237	     -8.01708678	     -0.62963027	     -6.27289041
      0.13000000	      1.22367665	     -2.05060248	      0.20673432	      1.09147421	      0.93463198	     -0.00206851	      2.94414320	     -0.45656336	    -12.47172177	    -17.35983504	     11.77365563	      1.80526610	      5.55777136	     -3.76432989	    -10.71808006	    -22.23274666	     13.57254209	     -2.40446340	     -7.95531999	     -0.64210213	     -6.24230428
      0.14000000	      1.20472129	     -2.05003375	      0.16238203	      1.09124449	      0.93455145	     -0.00183834	      3.02151509	     -0.45952254	    -12.51060495	    -17.42956029	     11.78291830	      1.77434175	      5.60540458	     -3.78311545	    -10.76138696	    -22.26778437	     13.57504961	     -2.40219954	     -7.94207308	     -0.63592620	     -6.20719211
      0.15000000	      1.18603963	     -2.04085103	      0.12070395	      1.09104257	      0.93447270	     -0.00160484	      3.09403868	     -0.46723619	    -12.51351935	    -17.49543698	     11.80696660	      1.74531380	      5.64897910	     -3.79379720	    -10.81107647	    -22.29862951	     13.58007787	     -2.40027034	     -7.92510091	     -0.64092962	     -6.17983121
      0.16000000	      1.19739403	     -2.03403814	      0.10382444	      1.09088441	      0.93445337	     -0.00142789	      3.11521532	     -0.46779586	    -12.49580341	    -17.53558542	     11.81136471	      1.73843363	      5.65119747	     -3.79739766	    -10.81483524	    -22.30992015	     13.57730021	     -2.40023730	     -7.93746909	     -0.63547831	     -6.18922138
      0.17000000	      1.21335135	     -2.01765234	      0.09221401	      1.09074194	      0.93444174	     -0.00127248	      3.12982473	     -0.47672734	    -12.45564971	    -17.57606313	     11.82516872	      1.72907319	      5.65162064	     -3.79053703	    -10.82496104	    -22.32776740	     13.57453765	     -2.39991456	     -7.95589990	     -0.63876782	     -6.19300249
      0.18000000	      1.24417474	     -1.98390591	      0.06688095	      1.09065638	      0.93445981	     -0.00110913	      3.11977461	     -0.49849174	    -12.35544018	    -17.60522179	     11.87831907	      1.69975454	      5.61503035	     -3.76289413	    -10.85417490	    -22.31701670	     13.55972034	     -2.40130452	     -7.98175289	     -0.66156932	     -6.17065136
